<svg width="463" height="297" viewBox="0 0 463 297" fill="none" xmlns="http://www.w3.org/2000/svg">
<g clip-path="url(#clip0_19_901)">
<path d="M86.0476 172.877H4.30754C1.93235 172.877 0 170.943 0 168.565V36.72C0 34.3419 1.93235 32.4071 4.30754 32.4071H86.0476C88.4228 32.4071 90.3552 34.3419 90.3552 36.72V168.565C90.3552 170.943 88.4228 172.877 86.0476 172.877Z" fill="#F0DFFF"/>
<path d="M179.209 172.877H97.4687C95.0936 172.877 93.1612 170.943 93.1612 168.565V36.72C93.1612 34.3419 95.0936 32.4071 97.4687 32.4071H179.209C181.584 32.4071 183.516 34.3419 183.516 36.72V168.565C183.516 170.943 181.584 172.877 179.209 172.877Z" fill="#F0DFFF"/>
<path d="M272.37 172.877H190.63C188.255 172.877 186.322 170.943 186.322 168.565V36.72C186.322 34.3419 188.255 32.4071 190.63 32.4071H272.37C274.745 32.4071 276.678 34.3419 276.678 36.72V168.565C276.678 170.943 274.745 172.877 272.37 172.877Z" fill="#9333EA"/>
<path d="M365.531 172.877H283.791C281.416 172.877 279.484 170.943 279.484 168.565V36.72C279.484 34.3419 281.416 32.4071 283.791 32.4071H365.531C367.906 32.4071 369.839 34.3419 369.839 36.72V168.565C369.839 170.943 367.906 172.877 365.531 172.877Z" fill="#F0DFFF"/>
<path d="M458.692 172.877H376.952C374.577 172.877 372.645 170.943 372.645 168.565V36.72C372.645 34.3419 374.577 32.4071 376.952 32.4071H458.692C461.068 32.4071 463 34.3419 463 36.72V168.565C463 170.943 461.068 172.877 458.692 172.877Z" fill="#F0DFFF"/>
<path d="M296.09 12.5222L304.874 5.67932C304.874 5.67932 314.897 8.8068 315.156 8.93613C315.414 9.06547 330.71 44.5788 330.71 44.5788C330.71 44.5788 291.528 64.6547 294.393 62.697C297.259 60.7453 296.666 34.2852 294 30.8344C291.328 27.3777 293.607 18.7124 293.607 18.7124L296.079 12.5222H296.09Z" fill="#2F2E43"/>
<path d="M320.37 28.524H308.462V47.4418L321.591 43.1209L320.37 28.524Z" fill="#E7979A"/>
<path d="M310.089 33.7561C317.314 33.7561 323.171 27.892 323.171 20.6583C323.171 13.4246 317.314 7.56052 310.089 7.56052C302.863 7.56052 297.006 13.4246 297.006 20.6583C297.006 27.892 302.863 33.7561 310.089 33.7561Z" fill="#E7979A"/>
<path d="M293.794 18.2716L297 18.8183C299.995 6.82568 306.771 10.7409 307.417 10.6057C308.063 10.4705 317.698 21.0287 316.917 31.7162C316.136 42.4037 329.935 47.4124 329.935 47.4124C329.935 47.4124 334.756 56.4832 330.457 72.9025C326.159 89.3218 335.272 94.8302 335.272 94.8302C353.24 93.3017 342.436 68.2113 339.57 63.6494C336.705 59.0875 338.66 51.1395 338.66 51.1395C343.088 47.2301 337.879 38.6296 337.879 38.6296C337.879 38.6296 338.795 27.1602 336.059 24.9439C333.323 22.7276 333.194 17.2545 333.194 17.2545C328.373 -3.72663 312.625 0.312055 312.625 0.312055C292.45 -1.90422 293.794 18.2716 293.794 18.2716Z" fill="#2F2E43"/>
<path d="M315.412 266.317H302.353V284.863H315.412V266.317Z" fill="#E69B9E"/>
<path d="M289.635 296.091C288.262 296.091 287.041 296.057 286.12 295.972C282.651 295.654 279.342 293.091 277.678 291.592C276.933 290.92 276.692 289.846 277.081 288.92C277.36 288.255 277.917 287.76 278.609 287.562L287.774 284.94L302.615 274.916L302.78 275.213C302.842 275.324 304.299 277.952 304.787 279.728C304.973 280.404 304.924 280.967 304.642 281.402C304.446 281.703 304.175 281.879 303.954 281.978C304.223 282.261 305.064 282.831 307.658 283.246C311.44 283.848 312.239 279.92 312.272 279.753L312.297 279.622L312.409 279.549C314.211 278.387 315.319 277.86 315.702 277.971C315.941 278.043 316.34 278.163 317.414 288.86C317.523 289.195 318.277 291.657 317.764 294.011C317.206 296.572 306.033 295.691 303.799 295.488C303.735 295.496 295.368 296.091 289.635 296.091Z" fill="#36344E"/>
<path d="M352.59 251.75L341.509 258.668L351.311 274.405L362.392 267.486L352.59 251.75Z" fill="#E69B9E"/>
<path d="M337.875 293.549C336.343 293.549 334.934 293.365 333.931 293.187C332.942 293.011 332.171 292.227 332.011 291.236C331.897 290.524 332.108 289.809 332.591 289.274L338.982 282.194L346.276 265.826L346.573 265.99C346.684 266.051 349.31 267.509 350.663 268.758C351.177 269.234 351.433 269.737 351.424 270.255C351.417 270.615 351.28 270.907 351.145 271.109C351.522 271.207 352.537 271.244 354.958 270.222C358.485 268.731 357.088 264.973 357.026 264.814L356.979 264.689L357.035 264.568C357.95 262.628 358.61 261.59 358.995 261.485C359.236 261.418 359.639 261.31 366.203 269.817C366.472 270.043 368.414 271.733 369.223 274.002C370.103 276.471 360.156 281.642 358.154 282.654C358.092 282.704 347.682 290.279 343.409 292.432C341.714 293.285 339.707 293.549 337.875 293.549Z" fill="#36344E"/>
<path d="M325.025 111.212H288.467L285.15 145.258L299.665 271.065H318.326L310.862 198.404L341.135 264.006L357.724 252.381L334.085 191.138C334.085 191.138 342.531 137.785 335.895 124.498C329.26 111.212 325.025 111.212 325.025 111.212Z" fill="#DB2777"/>
<path d="M343.209 113.288H285.15L302.567 38.1361H327.865L343.209 113.288Z" fill="#9333EA"/>
<path d="M270.733 36.6551C269.807 32.0831 271.503 27.9072 274.521 27.3282C277.539 26.7492 280.736 29.986 281.662 34.5598C282.058 36.3819 281.995 38.2705 281.479 40.0677L285.15 59.4883L275.66 60.9898L273.049 41.6851C271.871 40.2125 271.077 38.4877 270.733 36.6551Z" fill="#E69B9E"/>
<path d="M327.245 38.1361H304.934L289.894 68.2509L284.222 45.6858L271.76 47.0108C271.76 47.0108 274.709 91.1027 287.6 89.6135C300.491 88.1243 330.55 48.395 327.245 38.1361Z" fill="#9333EA"/>
<path d="M352.161 152.662C353.087 157.234 351.391 161.41 348.373 161.989C345.355 162.568 342.158 159.331 341.232 154.757C340.836 152.935 340.899 151.047 341.415 149.249L337.744 129.829L347.234 128.327L349.845 147.632C351.023 149.105 351.817 150.829 352.161 152.662Z" fill="#E69B9E"/>
<path d="M314.53 38.1361C314.53 38.1361 327.208 37.5988 327.865 38.1361C331.322 40.9669 351.623 143.04 351.623 143.04H338.767L314.53 38.1361Z" fill="#9333EA"/>
<path d="M212.599 296.342C212.599 296.707 212.892 297 213.256 297H444.028C444.392 297 444.685 296.707 444.685 296.342C444.685 295.976 444.392 295.683 444.028 295.683H213.256C212.892 295.683 212.599 295.976 212.599 296.342Z" fill="#3F3D58"/>
</g>
<defs>
<clipPath id="clip0_19_901">
<rect width="463" height="297" fill="white"/>
</clipPath>
</defs>
</svg>
