<svg width="454" height="222" viewBox="0 0 454 222" fill="none" xmlns="http://www.w3.org/2000/svg">
<g clip-path="url(#clip0_19_1327)">
<path d="M0 200.333C0 200.783 0.511428 201.143 1.15191 201.143H452.848C453.484 201.143 454 200.783 454 200.333C454 199.883 453.489 199.524 452.848 199.524H1.15191C0.516208 199.524 0 199.883 0 200.333Z" fill="#2F2E43"/>
<path d="M377.209 201.478H77.7466V8.28837C77.7466 3.72043 81.4556 0 86.0202 0H368.936C373.495 0 377.209 3.71564 377.209 8.28837V201.478Z" fill="#2F2E41"/>
<path d="M402.135 222H52.0748C50.8655 222 49.8761 221.248 49.5463 220.08C49.2213 218.916 49.6754 217.753 50.7078 217.126L77.9951 200.448H377.31L377.396 200.501L403.55 217.15C404.559 217.791 404.998 218.95 404.664 220.104C404.329 221.253 403.34 222 402.145 222H402.135Z" fill="#DFDFDF"/>
<path d="M369.012 12.3152H85.5997V188.823H369.012V12.3152Z" fill="white"/>
<path d="M379.939 211.399H76.0403L91.0629 199.189H365.599L379.939 211.399Z" fill="#2F2E41"/>
<path d="M299.357 219.606H155.259L160.722 211.399H293.894L299.357 219.606Z" fill="#2F2E41"/>
<path d="M312.248 82.1128H297.235C295.93 82.1128 294.869 81.0498 294.869 79.7426C294.869 78.4355 295.93 77.3725 297.235 77.3725H312.248C313.553 77.3725 314.614 78.4355 314.614 79.7426C314.614 81.0498 313.553 82.1128 312.248 82.1128Z" fill="#DFDFDF"/>
<path d="M329.513 82.1128H322.506C321.201 82.1128 320.14 81.0498 320.14 79.7426C320.14 78.4355 321.201 77.3725 322.506 77.3725H329.513C330.818 77.3725 331.879 78.4355 331.879 79.7426C331.879 81.0498 330.818 82.1128 329.513 82.1128Z" fill="#DFDFDF"/>
<path d="M161.936 83.9227H116.242C113.91 83.9227 112.012 82.0218 112.012 79.6852C112.012 77.3485 113.91 75.4476 116.242 75.4476H161.936C164.269 75.4476 166.166 77.3485 166.166 79.6852C166.166 82.0218 164.269 83.9227 161.936 83.9227Z" fill="#9333EA"/>
<path d="M137.163 95.2277H115.143C113.723 95.2277 112.562 94.0689 112.562 92.642C112.562 91.2152 113.719 90.0564 115.143 90.0564H137.163C138.583 90.0564 139.744 91.2152 139.744 92.642C139.744 94.0689 138.587 95.2277 137.163 95.2277Z" fill="#DFDFDF"/>
<path d="M258.558 105.431H114.589C113.169 105.431 112.008 104.273 112.008 102.846C112.008 101.419 113.164 100.26 114.589 100.26H258.558C259.978 100.26 261.139 101.419 261.139 102.846C261.139 104.273 259.982 105.431 258.558 105.431Z" fill="#DFDFDF"/>
<path d="M246.174 112.326H114.589C113.169 112.326 112.008 111.168 112.008 109.741C112.008 108.314 113.164 107.155 114.589 107.155H246.169C247.589 107.155 248.75 108.314 248.75 109.741C248.75 111.168 247.593 112.326 246.169 112.326H246.174Z" fill="#DFDFDF"/>
<path d="M400.893 72.8668L393.857 75.1843V65.0333H400.243L400.893 72.8668Z" fill="#F2A7AA"/>
<path d="M394.727 67.844C398.599 67.844 401.739 64.6991 401.739 60.8197C401.739 56.9403 398.599 53.7954 394.727 53.7954C390.854 53.7954 387.715 56.9403 387.715 60.8197C387.715 64.6991 390.854 67.844 394.727 67.844Z" fill="#F2A7AA"/>
<path d="M396.653 60.1254C395.477 60.0919 394.708 58.8996 394.254 57.8175C393.8 56.7306 393.327 55.4856 392.242 55.0355C391.353 54.6669 389.78 57.1423 389.077 56.4864C388.346 55.8017 389.058 52.268 389.837 51.6359C390.616 51.0039 391.678 50.8794 392.681 50.8315C395.124 50.7166 397.585 50.9177 399.98 51.4157C401.462 51.7269 402.986 52.1914 404.057 53.2639C405.41 54.6238 405.759 56.6779 405.854 58.598C405.955 60.5611 405.84 62.62 404.889 64.3342C403.937 66.0532 401.94 67.3221 400.028 66.8815C399.837 65.8377 400.028 64.7699 400.104 63.7118C400.176 62.6536 400.104 61.514 399.459 60.6712C398.814 59.8285 397.437 59.4981 396.687 60.2451" fill="#36344E"/>
<path d="M405.281 62.5578C405.983 62.0407 406.82 61.6145 407.685 61.7199C408.617 61.8348 409.405 62.6057 409.644 63.5154C409.883 64.4252 409.616 65.4307 409.037 66.1729C408.459 66.9151 407.603 67.4082 406.695 67.6572C406.17 67.8009 405.596 67.8583 405.094 67.6429C404.358 67.3268 403.961 66.3788 404.248 65.6318" fill="#36344E"/>
<path d="M398.57 185.782H391.979V195.148H398.57V185.782Z" fill="#F2A7AA"/>
<path d="M385.559 200.822C384.866 200.822 384.25 200.803 383.786 200.76C382.037 200.597 380.364 199.304 379.523 198.547C379.145 198.207 379.026 197.666 379.222 197.197C379.36 196.862 379.642 196.613 379.991 196.512L384.618 195.186L392.108 190.12L392.189 190.269C392.222 190.326 392.954 191.652 393.202 192.548C393.298 192.888 393.269 193.175 393.13 193.395C393.03 193.549 392.896 193.635 392.782 193.687C392.915 193.831 393.341 194.118 394.65 194.329C396.557 194.635 396.964 192.648 396.978 192.567L396.992 192.5L397.05 192.462C397.958 191.873 398.517 191.609 398.713 191.667C398.833 191.705 399.033 191.763 399.578 197.168C399.631 197.336 400.013 198.581 399.755 199.768C399.473 201.061 393.833 200.616 392.705 200.515C392.672 200.515 388.451 200.822 385.555 200.822H385.559Z" fill="#36344E"/>
<path d="M417.335 178.417L411.743 181.911L416.69 189.858L422.283 186.364L417.335 178.417Z" fill="#F2A7AA"/>
<path d="M409.912 199.539C409.138 199.539 408.426 199.448 407.919 199.357C407.422 199.27 407.03 198.873 406.949 198.37C406.891 198.011 406.996 197.652 407.24 197.379L410.467 193.802L414.147 185.533L414.295 185.614C414.352 185.643 415.676 186.381 416.36 187.013C416.618 187.252 416.747 187.506 416.742 187.769C416.742 187.951 416.671 188.1 416.604 188.2C416.795 188.248 417.306 188.267 418.53 187.75C420.313 186.998 419.605 185.097 419.577 185.016L419.553 184.954L419.581 184.891C420.045 183.91 420.375 183.388 420.571 183.335C420.69 183.302 420.896 183.249 424.208 187.544C424.342 187.659 425.322 188.511 425.733 189.661C426.177 190.905 421.154 193.52 420.145 194.032C420.112 194.056 414.859 197.882 412.703 198.969C411.848 199.4 410.835 199.534 409.912 199.534V199.539Z" fill="#36344E"/>
<path d="M403.426 107.438H384.971L383.299 124.637L390.626 188.181H400.047L396.28 151.479L411.561 184.614L419.935 178.743L408 147.812C408 147.812 412.264 120.864 408.913 114.151C405.562 107.438 403.426 107.438 403.426 107.438Z" fill="#36344E"/>
<path d="M376.014 69.7784C375.546 67.4705 376.402 65.3589 377.926 65.0668C379.451 64.7747 381.062 66.4075 381.53 68.7202C381.731 69.6395 381.697 70.5924 381.439 71.5022L383.294 81.3132L378.505 82.0697L377.185 72.3209C376.593 71.5788 376.191 70.7073 376.014 69.7784Z" fill="#F2A7AA"/>
<path d="M417.125 128.376C417.593 130.684 416.737 132.796 415.213 133.088C413.688 133.38 412.077 131.747 411.609 129.435C411.408 128.515 411.442 127.562 411.7 126.653L409.845 116.842L414.634 116.085L415.954 125.834C416.546 126.576 416.948 127.447 417.125 128.376Z" fill="#F2A7AA"/>
<path d="M412.603 108.486H383.294L392.089 70.5302H404.855L412.603 108.486Z" fill="#DB2777"/>
<path d="M404.544 70.5302H393.283L385.693 85.7423L382.83 74.3463L376.54 75.0167C376.54 75.0167 378.027 97.2866 384.537 96.5349C391.042 95.7831 406.217 75.7158 404.549 70.5349L404.544 70.5302Z" fill="#DB2777"/>
<path d="M398.125 70.5302C398.125 70.5302 404.525 70.2572 404.855 70.5302C406.6 71.9618 416.847 123.516 416.847 123.516H410.357L398.121 70.5302H398.125Z" fill="#DB2777"/>
</g>
<defs>
<clipPath id="clip0_19_1327">
<rect width="454" height="222" fill="white"/>
</clipPath>
</defs>
</svg>
