<svg width="78" height="44" viewBox="0 0 78 44" fill="none" xmlns="http://www.w3.org/2000/svg">
<path d="M52.1248 31V8.59998H63.0688C65.8848 8.59998 67.9968 9.13331 69.4048 10.2C70.8341 11.2666 71.5488 12.6746 71.5488 14.424C71.5488 15.5973 71.2608 16.6213 70.6848 17.496C70.1088 18.3493 69.3194 19.0106 68.3168 19.48C67.3141 19.9493 66.1621 20.184 64.8608 20.184L65.4688 18.872C66.8768 18.872 68.1248 19.1066 69.2128 19.576C70.3008 20.024 71.1434 20.696 71.7408 21.592C72.3594 22.488 72.6688 23.5866 72.6688 24.888C72.6688 26.808 71.9114 28.312 70.3968 29.4C68.8821 30.4666 66.6528 31 63.7088 31H52.1248ZM57.2768 27.096H63.3248C64.6688 27.096 65.6821 26.8826 66.3648 26.456C67.0688 26.008 67.4208 25.304 67.4208 24.344C67.4208 23.4053 67.0688 22.712 66.3648 22.264C65.6821 21.7946 64.6688 21.56 63.3248 21.56H56.8928V17.784H62.4288C63.6874 17.784 64.6474 17.5706 65.3088 17.144C65.9914 16.696 66.3328 16.024 66.3328 15.128C66.3328 14.2533 65.9914 13.6026 65.3088 13.176C64.6474 12.728 63.6874 12.504 62.4288 12.504H57.2768V27.096Z" fill="black"/>
<path d="M36.9835 31V12.824H29.8155V8.59998H49.3355V12.824H42.1675V31H36.9835Z" fill="black"/>
<path d="M16.536 31.3839C14.7653 31.3839 13.1227 31.0959 11.608 30.5199C10.1147 29.9439 8.81332 29.1333 7.70399 28.0879C6.61599 27.0426 5.76265 25.8159 5.14399 24.4079C4.54665 22.9999 4.24799 21.4639 4.24799 19.7999C4.24799 18.1359 4.54665 16.5999 5.14399 15.1919C5.76265 13.7839 6.62665 12.5573 7.73599 11.5119C8.84532 10.4666 10.1467 9.65594 11.64 9.07994C13.1333 8.50394 14.7547 8.21594 16.504 8.21594C18.2747 8.21594 19.896 8.50394 21.368 9.07994C22.8613 9.65594 24.152 10.4666 25.24 11.5119C26.3493 12.5573 27.2133 13.7839 27.832 15.1919C28.4507 16.5786 28.76 18.1146 28.76 19.7999C28.76 21.4639 28.4507 23.0106 27.832 24.4399C27.2133 25.8479 26.3493 27.0746 25.24 28.1199C24.152 29.1439 22.8613 29.9439 21.368 30.5199C19.896 31.0959 18.2853 31.3839 16.536 31.3839ZM16.504 26.9679C17.5067 26.9679 18.424 26.7973 19.256 26.4559C20.1093 26.1146 20.856 25.6239 21.496 24.9839C22.136 24.3439 22.6267 23.5866 22.968 22.7119C23.3307 21.8373 23.512 20.8666 23.512 19.7999C23.512 18.7333 23.3307 17.7626 22.968 16.8879C22.6267 16.0133 22.136 15.2559 21.496 14.6159C20.8773 13.9759 20.1413 13.4853 19.288 13.1439C18.4347 12.8026 17.5067 12.6319 16.504 12.6319C15.5013 12.6319 14.5733 12.8026 13.72 13.1439C12.888 13.4853 12.152 13.9759 11.512 14.6159C10.872 15.2559 10.3707 16.0133 10.008 16.8879C9.66665 17.7626 9.49599 18.7333 9.49599 19.7999C9.49599 20.8453 9.66665 21.8159 10.008 22.7119C10.3707 23.5866 10.8613 24.3439 11.48 24.9839C12.12 25.6239 12.8667 26.1146 13.72 26.4559C14.5733 26.7973 15.5013 26.9679 16.504 26.9679Z" fill="black"/>
<path d="M75.3701 42V37.8H75.9141V38.944L75.8581 38.744C75.9754 38.424 76.1728 38.1813 76.4501 38.016C76.7275 37.8453 77.0715 37.76 77.4821 37.76V38.312C77.4608 38.312 77.4394 38.312 77.4181 38.312C77.3968 38.3067 77.3755 38.304 77.3541 38.304C76.9115 38.304 76.5648 38.44 76.3141 38.712C76.0635 38.9787 75.9381 39.36 75.9381 39.856V42H75.3701Z" fill="black"/>
<path d="M72.326 42.04C71.8887 42.04 71.5047 41.9493 71.174 41.768C70.8434 41.5813 70.5847 41.328 70.398 41.008C70.2114 40.6827 70.118 40.312 70.118 39.896C70.118 39.48 70.206 39.112 70.382 38.792C70.5634 38.472 70.8087 38.2213 71.118 38.04C71.4327 37.8533 71.7847 37.76 72.174 37.76C72.5687 37.76 72.918 37.8507 73.222 38.032C73.5314 38.208 73.774 38.4587 73.95 38.784C74.126 39.104 74.214 39.4747 74.214 39.896C74.214 39.9227 74.2114 39.952 74.206 39.984C74.206 40.0107 74.206 40.04 74.206 40.072H70.55V39.648H73.902L73.678 39.816C73.678 39.512 73.6114 39.2427 73.478 39.008C73.35 38.768 73.174 38.5813 72.95 38.448C72.726 38.3147 72.4674 38.248 72.174 38.248C71.886 38.248 71.6274 38.3147 71.398 38.448C71.1687 38.5813 70.99 38.768 70.862 39.008C70.734 39.248 70.67 39.5227 70.67 39.832V39.92C70.67 40.24 70.7394 40.5227 70.878 40.768C71.022 41.008 71.2194 41.1973 71.47 41.336C71.726 41.4693 72.0167 41.536 72.342 41.536C72.598 41.536 72.8354 41.4907 73.054 41.4C73.278 41.3093 73.47 41.1707 73.63 40.984L73.95 41.352C73.7634 41.576 73.5287 41.7467 73.246 41.864C72.9687 41.9813 72.662 42.04 72.326 42.04Z" fill="black"/>
<path d="M66.7922 42.04C66.3922 42.04 66.0322 41.9493 65.7122 41.768C65.3975 41.5866 65.1495 41.336 64.9682 41.016C64.7868 40.6906 64.6962 40.3173 64.6962 39.896C64.6962 39.4693 64.7868 39.096 64.9682 38.776C65.1495 38.456 65.3975 38.208 65.7122 38.032C66.0322 37.8506 66.3922 37.76 66.7922 37.76C67.1602 37.76 67.4882 37.8426 67.7762 38.008C68.0695 38.1733 68.3015 38.416 68.4722 38.736C68.6482 39.0506 68.7362 39.4373 68.7362 39.896C68.7362 40.3493 68.6508 40.736 68.4802 41.056C68.3095 41.376 68.0775 41.6213 67.7842 41.792C67.4962 41.9573 67.1655 42.04 66.7922 42.04ZM66.8322 41.536C67.1308 41.536 67.3975 41.4693 67.6322 41.336C67.8722 41.1973 68.0588 41.0053 68.1922 40.76C68.3308 40.5093 68.4002 40.2213 68.4002 39.896C68.4002 39.5653 68.3308 39.2773 68.1922 39.032C68.0588 38.7866 67.8722 38.5973 67.6322 38.464C67.3975 38.3253 67.1308 38.256 66.8322 38.256C66.5388 38.256 66.2748 38.3253 66.0402 38.464C65.8055 38.5973 65.6188 38.7866 65.4802 39.032C65.3415 39.2773 65.2722 39.5653 65.2722 39.896C65.2722 40.2213 65.3415 40.5093 65.4802 40.76C65.6188 41.0053 65.8055 41.1973 66.0402 41.336C66.2748 41.4693 66.5388 41.536 66.8322 41.536ZM68.4162 42V40.736L68.4722 39.888L68.3922 39.04V36.064H68.9602V42H68.4162Z" fill="black"/>
<path d="M62.9717 42V36.064H63.5397V42H62.9717Z" fill="black"/>
<path d="M60.8232 42V37.8H61.3913V42H60.8232ZM61.1113 36.872C60.9939 36.872 60.8953 36.832 60.8153 36.752C60.7353 36.672 60.6953 36.576 60.6953 36.464C60.6953 36.352 60.7353 36.2586 60.8153 36.184C60.8953 36.104 60.9939 36.064 61.1113 36.064C61.2286 36.064 61.3272 36.1013 61.4072 36.176C61.4872 36.2506 61.5272 36.344 61.5272 36.456C61.5272 36.5733 61.4872 36.672 61.4072 36.752C61.3326 36.832 61.2339 36.872 61.1113 36.872Z" fill="black"/>
<path d="M57.1843 42.0399C56.8269 42.0399 56.5149 41.9733 56.2483 41.8399C55.9816 41.7066 55.7736 41.5066 55.6243 41.2399C55.4803 40.9733 55.4083 40.6399 55.4083 40.2399V37.7999H55.9763V40.1759C55.9763 40.6239 56.0856 40.9626 56.3043 41.1919C56.5283 41.4159 56.8403 41.5279 57.2403 41.5279C57.5336 41.5279 57.7869 41.4693 58.0003 41.3519C58.2189 41.2293 58.3843 41.0533 58.4963 40.8239C58.6136 40.5946 58.6723 40.3199 58.6723 39.9999V37.7999H59.2403V41.9999H58.6963V40.8479L58.7843 41.0559C58.6509 41.3653 58.4429 41.6079 58.1603 41.7839C57.8829 41.9546 57.5576 42.0399 57.1843 42.0399Z" fill="black"/>
<path d="M49.537 42V36.4H51.953C52.577 36.4 53.0597 36.5254 53.401 36.776C53.7477 37.0267 53.921 37.3814 53.921 37.84C53.921 38.144 53.849 38.4 53.705 38.608C53.5663 38.816 53.3743 38.9734 53.129 39.08C52.889 39.1867 52.625 39.24 52.337 39.24L52.473 39.048C52.8303 39.048 53.137 39.104 53.393 39.216C53.6543 39.3227 53.857 39.4854 54.001 39.704C54.145 39.9174 54.217 40.184 54.217 40.504C54.217 40.9787 54.041 41.3467 53.689 41.608C53.3423 41.8694 52.817 42 52.113 42H49.537ZM50.129 41.512H52.105C52.5957 41.512 52.9717 41.4294 53.233 41.264C53.4943 41.0934 53.625 40.824 53.625 40.456C53.625 40.0934 53.4943 39.8294 53.233 39.664C52.9717 39.4934 52.5957 39.408 52.105 39.408H50.065V38.92H51.913C52.361 38.92 52.7077 38.8347 52.953 38.664C53.2037 38.4934 53.329 38.24 53.329 37.904C53.329 37.5627 53.2037 37.3094 52.953 37.144C52.7077 36.9734 52.361 36.888 51.913 36.888H50.129V41.512Z" fill="black"/>
<path d="M44.0869 37.76C44.4282 37.76 44.7242 37.8267 44.9749 37.96C45.2309 38.088 45.4282 38.2853 45.5669 38.552C45.7109 38.8187 45.7829 39.1547 45.7829 39.56V42H45.2149V39.616C45.2149 39.1733 45.1082 38.84 44.8949 38.616C44.6869 38.3867 44.3909 38.272 44.0069 38.272C43.7189 38.272 43.4682 38.3333 43.2549 38.456C43.0469 38.5733 42.8842 38.7467 42.7669 38.976C42.6549 39.2 42.5989 39.472 42.5989 39.792V42H42.0309V39.616C42.0309 39.1733 41.9242 38.84 41.7109 38.616C41.4975 38.3867 41.1989 38.272 40.8149 38.272C40.5322 38.272 40.2842 38.3333 40.0709 38.456C39.8575 38.5733 39.6922 38.7467 39.5749 38.976C39.4629 39.2 39.4069 39.472 39.4069 39.792V42H38.8389V37.8H39.3829V38.936L39.2949 38.736C39.4229 38.432 39.6282 38.1947 39.9109 38.024C40.1989 37.848 40.5375 37.76 40.9269 37.76C41.3375 37.76 41.6869 37.864 41.9749 38.072C42.2629 38.2747 42.4495 38.5813 42.5349 38.992L42.3109 38.904C42.4335 38.5627 42.6495 38.288 42.9589 38.08C43.2735 37.8667 43.6495 37.76 44.0869 37.76Z" fill="black"/>
<path d="M36.7521 42V41.072L36.7281 40.92V39.368C36.7281 39.0107 36.6268 38.736 36.4241 38.544C36.2268 38.352 35.9308 38.256 35.5361 38.256C35.2641 38.256 35.0055 38.3013 34.7601 38.392C34.5148 38.4827 34.3068 38.6027 34.1361 38.752L33.8801 38.328C34.0935 38.1467 34.3495 38.008 34.6481 37.912C34.9468 37.8107 35.2615 37.76 35.5921 37.76C36.1361 37.76 36.5548 37.896 36.8481 38.168C37.1468 38.4347 37.2961 38.8427 37.2961 39.392V42H36.7521ZM35.3041 42.04C34.9895 42.04 34.7148 41.9893 34.4801 41.888C34.2508 41.7813 34.0748 41.6373 33.9521 41.456C33.8295 41.2693 33.7681 41.056 33.7681 40.816C33.7681 40.5973 33.8188 40.4 33.9201 40.224C34.0268 40.0427 34.1975 39.8987 34.4321 39.792C34.6721 39.68 34.9921 39.624 35.3921 39.624H36.8401V40.048H35.4081C35.0028 40.048 34.7201 40.12 34.5601 40.264C34.4055 40.408 34.3281 40.5867 34.3281 40.8C34.3281 41.04 34.4215 41.232 34.6081 41.376C34.7948 41.52 35.0561 41.592 35.3921 41.592C35.7121 41.592 35.9868 41.52 36.2161 41.376C36.4508 41.2267 36.6215 41.0133 36.7281 40.736L36.8561 41.128C36.7495 41.4053 36.5628 41.6267 36.2961 41.792C36.0348 41.9573 35.7041 42.04 35.3041 42.04Z" fill="black"/>
<path d="M31.1932 42.04C30.7559 42.04 30.3719 41.9493 30.0412 41.768C29.7106 41.5813 29.4519 41.328 29.2652 41.008C29.0786 40.6827 28.9852 40.312 28.9852 39.896C28.9852 39.48 29.0732 39.112 29.2492 38.792C29.4306 38.472 29.6759 38.2213 29.9852 38.04C30.2999 37.8533 30.6519 37.76 31.0412 37.76C31.4359 37.76 31.7852 37.8507 32.0892 38.032C32.3986 38.208 32.6412 38.4587 32.8172 38.784C32.9932 39.104 33.0812 39.4747 33.0812 39.896C33.0812 39.9227 33.0786 39.952 33.0732 39.984C33.0732 40.0107 33.0732 40.04 33.0732 40.072H29.4172V39.648H32.7692L32.5452 39.816C32.5452 39.512 32.4786 39.2427 32.3452 39.008C32.2172 38.768 32.0412 38.5813 31.8172 38.448C31.5932 38.3147 31.3346 38.248 31.0412 38.248C30.7532 38.248 30.4946 38.3147 30.2652 38.448C30.0359 38.5813 29.8572 38.768 29.7292 39.008C29.6012 39.248 29.5372 39.5227 29.5372 39.832V39.92C29.5372 40.24 29.6066 40.5227 29.7452 40.768C29.8892 41.008 30.0866 41.1973 30.3372 41.336C30.5932 41.4693 30.8839 41.536 31.2092 41.536C31.4652 41.536 31.7026 41.4907 31.9212 41.4C32.1452 41.3093 32.3372 41.1707 32.4972 40.984L32.8172 41.352C32.6306 41.576 32.3959 41.7467 32.1132 41.864C31.8359 41.9813 31.5292 42.04 31.1932 42.04Z" fill="black"/>
<path d="M26.461 42V36.912H24.493V36.4H29.021V36.912H27.053V42H26.461Z" fill="black"/>
<path d="M19.8969 37.76C20.2383 37.76 20.5369 37.8267 20.7929 37.96C21.0543 38.088 21.2569 38.2853 21.4009 38.552C21.5503 38.8187 21.6249 39.1547 21.6249 39.56V42H21.0569V39.616C21.0569 39.1733 20.9449 38.84 20.7209 38.616C20.5023 38.3867 20.1929 38.272 19.7929 38.272C19.4943 38.272 19.2329 38.3333 19.0089 38.456C18.7903 38.5733 18.6196 38.7467 18.4969 38.976C18.3796 39.2 18.3209 39.472 18.3209 39.792V42H17.7529V37.8H18.2969V38.952L18.2089 38.736C18.3423 38.432 18.5556 38.1947 18.8489 38.024C19.1423 37.848 19.4916 37.76 19.8969 37.76Z" fill="black"/>
<path d="M14.7089 42.04C14.2715 42.04 13.8875 41.9493 13.5569 41.768C13.2262 41.5813 12.9675 41.328 12.7809 41.008C12.5942 40.6827 12.5009 40.312 12.5009 39.896C12.5009 39.48 12.5889 39.112 12.7649 38.792C12.9462 38.472 13.1915 38.2213 13.5009 38.04C13.8155 37.8533 14.1675 37.76 14.5569 37.76C14.9515 37.76 15.3009 37.8507 15.6049 38.032C15.9142 38.208 16.1569 38.4587 16.3329 38.784C16.5089 39.104 16.5969 39.4747 16.5969 39.896C16.5969 39.9227 16.5942 39.952 16.5889 39.984C16.5889 40.0107 16.5889 40.04 16.5889 40.072H12.9329V39.648H16.2849L16.0609 39.816C16.0609 39.512 15.9942 39.2427 15.8609 39.008C15.7329 38.768 15.5569 38.5813 15.3329 38.448C15.1089 38.3147 14.8502 38.248 14.5569 38.248C14.2689 38.248 14.0102 38.3147 13.7809 38.448C13.5515 38.5813 13.3729 38.768 13.2449 39.008C13.1169 39.248 13.0529 39.5227 13.0529 39.832V39.92C13.0529 40.24 13.1222 40.5227 13.2609 40.768C13.4049 41.008 13.6022 41.1973 13.8529 41.336C14.1089 41.4693 14.3995 41.536 14.7249 41.536C14.9809 41.536 15.2182 41.4907 15.4369 41.4C15.6609 41.3093 15.8529 41.1707 16.0129 40.984L16.3329 41.352C16.1462 41.576 15.9115 41.7467 15.6289 41.864C15.3515 41.9813 15.0449 42.04 14.7089 42.04Z" fill="black"/>
<path d="M9.67093 42.04C9.30826 42.04 8.98026 41.9573 8.68693 41.792C8.3936 41.6213 8.15893 41.3787 7.98293 41.064C7.81226 40.744 7.72693 40.3547 7.72693 39.896C7.72693 39.4373 7.81226 39.0507 7.98293 38.736C8.1536 38.416 8.3856 38.1733 8.67893 38.008C8.97226 37.8427 9.30293 37.76 9.67093 37.76C10.0709 37.76 10.4283 37.8507 10.7429 38.032C11.0629 38.208 11.3136 38.4587 11.4949 38.784C11.6763 39.104 11.7669 39.4747 11.7669 39.896C11.7669 40.3227 11.6763 40.696 11.4949 41.016C11.3136 41.336 11.0629 41.5867 10.7429 41.768C10.4283 41.9493 10.0709 42.04 9.67093 42.04ZM7.50293 43.552V37.8H8.04693V39.064L7.99093 39.904L8.07093 40.752V43.552H7.50293ZM9.63093 41.536C9.9296 41.536 10.1963 41.4693 10.4309 41.336C10.6656 41.1973 10.8523 41.0053 10.9909 40.76C11.1296 40.5093 11.1989 40.2213 11.1989 39.896C11.1989 39.5707 11.1296 39.2853 10.9909 39.04C10.8523 38.7947 10.6656 38.6027 10.4309 38.464C10.1963 38.3253 9.9296 38.256 9.63093 38.256C9.33226 38.256 9.06293 38.3253 8.82293 38.464C8.58826 38.6027 8.4016 38.7947 8.26293 39.04C8.1296 39.2853 8.06293 39.5707 8.06293 39.896C8.06293 40.2213 8.1296 40.5093 8.26293 40.76C8.4016 41.0053 8.58826 41.1973 8.82293 41.336C9.06293 41.4693 9.33226 41.536 9.63093 41.536Z" fill="black"/>
<path d="M3.36002 42.0479C2.93868 42.0479 2.54668 41.9786 2.18402 41.8399C1.82668 41.6959 1.51468 41.4959 1.24802 41.2399C0.986682 40.9786 0.781349 40.6773 0.632016 40.3359C0.488016 39.9893 0.416016 39.6106 0.416016 39.1999C0.416016 38.7893 0.488016 38.4133 0.632016 38.0719C0.781349 37.7253 0.986682 37.4239 1.24802 37.1679C1.51468 36.9066 1.82668 36.7066 2.18402 36.5679C2.54135 36.4239 2.93335 36.3519 3.36002 36.3519C3.78135 36.3519 4.17068 36.4239 4.52802 36.5679C4.88535 36.7066 5.19468 36.9039 5.45602 37.1599C5.72268 37.4159 5.92802 37.7173 6.07202 38.0639C6.22135 38.4106 6.29602 38.7893 6.29602 39.1999C6.29602 39.6106 6.22135 39.9893 6.07202 40.3359C5.92802 40.6826 5.72268 40.9839 5.45602 41.2399C5.19468 41.4959 4.88535 41.6959 4.52802 41.8399C4.17068 41.9786 3.78135 42.0479 3.36002 42.0479ZM3.36002 41.5199C3.69602 41.5199 4.00535 41.4639 4.28802 41.3519C4.57602 41.2346 4.82402 41.0719 5.03202 40.8639C5.24535 40.6506 5.41068 40.4053 5.52802 40.1279C5.64535 39.8453 5.70402 39.5359 5.70402 39.1999C5.70402 38.8639 5.64535 38.5573 5.52802 38.2799C5.41068 37.9973 5.24535 37.7519 5.03202 37.5439C4.82402 37.3306 4.57602 37.1679 4.28802 37.0559C4.00535 36.9386 3.69602 36.8799 3.36002 36.8799C3.02402 36.8799 2.71202 36.9386 2.42402 37.0559C2.13602 37.1679 1.88535 37.3306 1.67202 37.5439C1.46402 37.7519 1.29868 37.9973 1.17602 38.2799C1.05868 38.5573 1.00002 38.8639 1.00002 39.1999C1.00002 39.5306 1.05868 39.8373 1.17602 40.1199C1.29868 40.4026 1.46402 40.6506 1.67202 40.8639C1.88535 41.0719 2.13602 41.2346 2.42402 41.3519C2.71202 41.4639 3.02402 41.5199 3.36002 41.5199Z" fill="black"/>
</svg>
